<?xml version="1.0" encoding="utf-8"?>
<!-- Generator: Adobe Illustrator 20.0.0, SVG Export Plug-In . SVG Version: 6.00 Build 0)  -->
<svg version="1.0" id="Layer_1" xmlns="http://www.w3.org/2000/svg" xmlns:xlink="http://www.w3.org/1999/xlink" x="0px" y="0px"
	 viewBox="0 0 90 54" style="enable-background:new 0 0 90 54;" xml:space="preserve">
<style type="text/css">
	.st0{fill:#0033AB;}
	.st1{fill:none;stroke:#000000;stroke-width:2;stroke-miterlimit:10;}
	.st2{fill:none;stroke:#231F20;stroke-width:7;stroke-linecap:round;stroke-miterlimit:10;}
	.st3{fill:none;stroke:#000000;stroke-width:67;stroke-miterlimit:10;}
	.st4{fill:none;stroke:#000000;stroke-width:45;stroke-miterlimit:10;}
	.st5{stroke:#000000;stroke-width:3;stroke-miterlimit:10;}
	.st6{fill:none;stroke:#000000;stroke-width:6.475;stroke-miterlimit:10;stroke-dasharray:11.8657,11.8657;}
	.st7{fill:#010101;}
</style>
<path d="M1,14c-1.1,0-2-0.9-2-2s0.9-2,2-2h28c1.1,0,2,0.9,2,2s-0.9,2-2,2H1z"/>
<path d="M3,25c-1.1,0-2-0.9-2-2s0.9-2,2-2h26c1.1,0,2,0.9,2,2s-0.9,2-2,2H3z"/>
<g>
	<g transform="translate(0,-952.36218)">
		<path d="M11,952.4c-0.6,0-1,0.4-1,1s0.4,1,1,1h50.5l10.7,16.5c0.1,0.2,0.3,0.3,0.5,0.4L88,977v21.3h-8c0-4.4-3.6-8-8-8s-8,3.6-8,8
			H36c0-4.4-3.6-8-8-8s-8,3.6-8,8h-8v-13c0-0.6-0.4-1-1-1s-1,0.4-1,1v14c0,0.5,0.5,1,1,1h9.3c0.9,3.4,4,6,7.7,6c3.7,0,6.9-2.6,7.8-6
			h28.5c0.9,3.4,4,6,7.7,6c3.7,0,6.9-2.6,7.8-6H89c0.5,0,1-0.5,1-1v-23c0-0.4-0.3-0.8-0.7-0.9l-15.7-5.9l-10.8-16.7
			c-0.2-0.3-0.5-0.5-0.8-0.5H11z M28,992.4c3.3,0,6,2.7,6,6c0,3.3-2.7,6-6,6s-6-2.7-6-6C22,995,24.7,992.4,28,992.4z M72,992.4
			c3.3,0,6,2.7,6,6c0,3.3-2.7,6-6,6s-6-2.7-6-6C66,995,68.7,992.4,72,992.4z"/>
	</g>
	<path d="M1,11c-0.6,0-1,0.4-1,1c0,0.6,0.4,1,1,1h28c0.6,0,1-0.4,1-1c0-0.6-0.4-1-1-1H1z"/>
	<path d="M3,22c-0.6,0-1,0.4-1,1c0,0.6,0.4,1,1,1h26c0.6,0,1-0.4,1-1c0-0.6-0.4-1-1-1H3z"/>
</g>
</svg>
