<?xml version="1.0" encoding="utf-8"?>
<!-- Generator: Adobe Illustrator 20.0.0, SVG Export Plug-In . SVG Version: 6.00 Build 0)  -->
<svg version="1.0" id="Layer_1" xmlns="http://www.w3.org/2000/svg" xmlns:xlink="http://www.w3.org/1999/xlink" x="0px" y="0px"
	 viewBox="0 0 86.1 86.1" style="enable-background:new 0 0 86.1 86.1;" xml:space="preserve">
<style type="text/css">
	.st0{fill:#0033AB;}
	.st1{fill:none;stroke:#000000;stroke-width:2;stroke-miterlimit:10;}
	.st2{fill:none;stroke:#231F20;stroke-width:7;stroke-linecap:round;stroke-miterlimit:10;}
	.st3{fill:none;stroke:#000000;stroke-width:67;stroke-miterlimit:10;}
	.st4{fill:none;stroke:#000000;stroke-width:45;stroke-miterlimit:10;}
	.st5{stroke:#000000;stroke-width:3;stroke-miterlimit:10;}
	.st6{fill:none;stroke:#000000;stroke-width:6.475;stroke-miterlimit:10;stroke-dasharray:11.8657,11.8657;}
	.st7{fill:#010101;}
</style>
<path d="M43,86.1c-23.7,0-43-19.3-43-43S19.3,0,43,0c15,0,28.6,7.6,36.6,20.3l1.2,1.9l3.3-11.5c0.1-0.4,0.4-0.7,0.8-0.8
	c0.1,0,0.1,0,0.2,0c0.1,0,0.2,0,0.3,0c0.3,0.1,0.5,0.2,0.6,0.5c0.1,0.2,0.2,0.5,0.1,0.8l-4,14c-0.1,0.4-0.5,0.7-1,0.7
	c-0.1,0-0.2,0-0.3,0l-14-4c-0.3-0.1-0.5-0.2-0.6-0.5C66,21.3,66,21,66.1,20.7c0.1-0.4,0.5-0.7,1-0.7c0.1,0,0.2,0,0.3,0l11.8,3.4
	l-1.4-2.2C70.2,9.2,57.2,2.1,43,2.1c-22.6,0-41,18.4-41,41c0,22.6,18.4,41,41,41c14.3,0,27.8-7.5,35.1-19.5c0.2-0.3,0.6-0.5,0.9-0.5
	c0.2,0,0.3,0,0.5,0.1c0.4,0.3,0.6,1,0.3,1.4C72.1,78.2,58,86.1,43,86.1z M63,54c-0.2,0-0.3,0-0.5-0.1l-20-10
	C42.2,43.7,42,43.4,42,43V15c0-0.5,0.4-1,0.9-1c0,0,0.1,0,0.1,0c0.6,0,1,0.5,1,1v27.4l19.5,9.7c0.2,0.1,0.4,0.3,0.5,0.6
	c0.1,0.3,0.1,0.5-0.1,0.8C63.8,53.8,63.4,54,63,54L63,54z"/>
</svg>
