<?xml version="1.0" encoding="utf-8"?>
<!-- Generator: Adobe Illustrator 20.0.0, SVG Export Plug-In . SVG Version: 6.00 Build 0)  -->
<svg version="1.0" id="Layer_1" xmlns="http://www.w3.org/2000/svg" xmlns:xlink="http://www.w3.org/1999/xlink" x="0px" y="0px"
	 viewBox="0 0 58.6 77.4" style="enable-background:new 0 0 58.6 77.4;" xml:space="preserve">
<style type="text/css">
	.st0{fill:#0033AB;}
	.st1{fill:none;stroke:#000000;stroke-width:2;stroke-miterlimit:10;}
	.st2{fill:none;stroke:#231F20;stroke-width:7;stroke-linecap:round;stroke-miterlimit:10;}
	.st3{fill:none;stroke:#000000;stroke-width:67;stroke-miterlimit:10;}
	.st4{fill:none;stroke:#000000;stroke-width:45;stroke-miterlimit:10;}
	.st5{stroke:#000000;stroke-width:3;stroke-miterlimit:10;}
	.st6{fill:none;stroke:#000000;stroke-width:6.475;stroke-miterlimit:10;stroke-dasharray:11.8657,11.8657;}
	.st7{fill:#010101;}
</style>
<g>
	<g>
		<path class="st5" d="M29.3,74.9L7.2,46.1c-7.6-9.9-7.6-23.8,0-33.7C12.5,5.5,20.5,1.5,29.3,1.5s16.8,4,22.1,10.9
			c7.6,9.9,7.6,23.8,0,33.7L29.3,74.9z M29.3,5.5c-7.5,0-14.3,3.4-18.9,9.3c-6.5,8.5-6.5,20.4,0,28.9l18.9,24.7l18.9-24.7
			c6.5-8.5,6.5-20.4,0-28.9C43.6,8.9,36.8,5.5,29.3,5.5z"/>
	</g>
	<g>
		<path class="st5" d="M29.3,41.2c-6.6,0-12-5.4-12-12s5.4-12,12-12s12,5.4,12,12S35.9,41.2,29.3,41.2z M29.3,20
			c-5.1,0-9.2,4.1-9.2,9.2s4.1,9.2,9.2,9.2s9.2-4.1,9.2-9.2S34.4,20,29.3,20z"/>
	</g>
</g>
</svg>
