<?xml version="1.0" encoding="utf-8"?>
<!-- Generator: Adobe Illustrator 20.0.0, SVG Export Plug-In . SVG Version: 6.00 Build 0)  -->
<svg version="1.0" id="Layer_1" xmlns="http://www.w3.org/2000/svg" xmlns:xlink="http://www.w3.org/1999/xlink" x="0px" y="0px"
	 viewBox="0 0 50.2 50.1" style="enable-background:new 0 0 50.2 50.1;" xml:space="preserve">
<style type="text/css">
	.st0{fill:#0033AB;}
	.st1{fill:none;stroke:#000000;stroke-width:2;stroke-miterlimit:10;}
	.st2{fill:none;stroke:#231F20;stroke-width:7;stroke-linecap:round;stroke-miterlimit:10;}
	.st3{fill:none;stroke:#000000;stroke-width:67;stroke-miterlimit:10;}
	.st4{fill:none;stroke:#000000;stroke-width:45;stroke-miterlimit:10;}
	.st5{stroke:#000000;stroke-width:3;stroke-miterlimit:10;}
	.st6{fill:none;stroke:#000000;stroke-width:6.475;stroke-miterlimit:10;stroke-dasharray:11.8657,11.8657;}
	.st7{fill:#010101;}
</style>
<path d="M25.1,50.1C11.2,50.1,0,38.9,0,25.1C0,11.2,11.2,0,25.1,0c13.8,0,25.1,11.2,25.1,25.1C50.2,38.9,38.9,50.1,25.1,50.1z
	 M25.1,1.5c-13,0-23.6,10.6-23.6,23.6c0,13,10.6,23.6,23.6,23.6c13,0,23.6-10.6,23.6-23.6C48.6,12.1,38.1,1.5,25.1,1.5z"/>
<path d="M21.7,31.5c-0.2,0-0.4-0.1-0.5-0.2l-4.8-4.8c-0.3-0.3-0.3-0.8,0-1.1c0.1-0.1,0.3-0.2,0.5-0.2c0.2,0,0.4,0.1,0.5,0.2l4.3,4.3
	l10.9-10.9c0.1-0.1,0.3-0.2,0.5-0.2c0.2,0,0.4,0.1,0.6,0.2c0.3,0.3,0.3,0.8,0,1.1L22.3,31.3C22.1,31.4,21.9,31.5,21.7,31.5z"/>
</svg>
